<?xml version="1.0" encoding="utf-8"?>
<!-- Generator: Adobe Illustrator 23.0.6, SVG Export Plug-In . SVG Version: 6.00 Build 0)  -->
<svg version="1.1" id="Layer_1" xmlns="http://www.w3.org/2000/svg" xmlns:xlink="http://www.w3.org/1999/xlink" x="0px" y="0px"
	 viewBox="0 0 245.8 245.8" style="enable-background:new 0 0 245.8 245.8;" xml:space="preserve">
<style type="text/css">
	.st0{fill:#D93327;}
</style>
<path class="st0" d="M122.9,0C55,0,0,55,0,122.9c0,67.9,55,122.9,122.9,122.9c67.9,0,122.9-55,122.9-122.9C245.8,55,190.8,0,122.9,0
	z M122.9,222.8c-55.2,0-99.9-44.7-99.9-99.9S67.8,23,122.9,23s99.9,44.7,99.9,99.9S178.1,222.8,122.9,222.8z M122.9,53.9
	c-8.8,0-15.5,4.6-15.5,12V134c0,7.4,6.7,12,15.5,12c8.6,0,15.5-4.8,15.5-12V65.9C138.4,58.7,131.5,53.9,122.9,53.9z M122.9,161.3
	c-8.5,0-15.3,6.9-15.3,15.3c0,8.4,6.9,15.3,15.3,15.3s15.3-6.9,15.3-15.3C138.2,168.2,131.4,161.3,122.9,161.3z"/>
</svg>
