<svg xmlns="http://www.w3.org/2000/svg" viewBox="0 0 384 384">
  <title>error-icon</title>
  <path d="M368,176a16,16,0,0,0-16,16c0,88.22-71.78,160-160,160S32,280.22,32,192,103.78,32,192,32A158.91,158.91,0,0,1,305.54,79.26a16,16,0,1,0,22.7-22.55A190.67,190.67,0,0,0,192,0C86.13,0,0,86.13,0,192S86.13,384,192,384s192-86.13,192-192A16,16,0,0,0,368,176Z" style="fill: #fff"/>
  <path d="M251.31,132.69a16,16,0,0,0-22.62,0L192,169.38l-36.69-36.69a16,16,0,0,0-22.62,22.62L169.38,192l-36.69,36.69a16,16,0,1,0,22.62,22.62L192,214.62l36.69,36.69a16,16,0,0,0,22.62-22.62L214.62,192l36.69-36.69A16,16,0,0,0,251.31,132.69Z" style="fill: #fff"/>
</svg>
