<svg xmlns="http://www.w3.org/2000/svg" viewBox="0 0 288 288">
  <title>information-icon</title>
  <path d="M144,103.12a15.33,15.33,0,1,0-15.33-15.33A15.35,15.35,0,0,0,144,103.12Zm0,0" style="fill: #fff"/>
  <path d="M123.56,215.54h40.88a10.22,10.22,0,0,0,0-20.44H154.22V133.78A10.23,10.23,0,0,0,144,123.56H128.67a10.22,10.22,0,1,0,0,20.44h5.11v51.1H123.56a10.22,10.22,0,0,0,0,20.44Zm0,0" style="fill: #fff"/>
  <path d="M276,132a12,12,0,0,0-12,12,120,120,0,1,1-34.85-84.55,12,12,0,1,0,17-16.92A143,143,0,0,0,144,0C64.6,0,0,64.6,0,144S64.6,288,144,288s144-64.6,144-144A12,12,0,0,0,276,132Z" style="fill: #fff"/>
</svg>
