<svg xmlns="http://www.w3.org/2000/svg" viewBox="0 0 512 440.28">
  <title>warning-icon</title>
  <path d="M378.14,224.83l98.72,162.92A12.67,12.67,0,0,1,466,407H46a12.66,12.66,0,0,1-10.85-19.2l210-348.29a12.66,12.66,0,0,1,21.68,0l56,92.87.62,1.06a16.69,16.69,0,0,0,28.59-17.21l-.14-.19L295.39,22.24a46,46,0,0,0-78.78,0L6.6,370.54A46,46,0,0,0,46,440.28H466a46,46,0,0,0,39.39-69.74L407,208.14l-.14-.25-.62-1a16.69,16.69,0,1,0-28.59,17.21l.14.19Z" transform="translate(0)" style="fill: #fff"/>
  <path d="M256.17,293.16c6.93,0,16.76-3.75,16.76-12.71,0-34.4,4-83.82,4-118.21,0-11.27-9.53-17.63-20.81-17.63-11.84,0-21.09,6.36-21.09,17.63,0,34.39,4,83.81,4,118.21C239.11,289.41,246.92,293.16,256.17,293.16Z" transform="translate(0)" style="fill: #fff"/>
  <path d="M256.46,313.11a22.25,22.25,0,1,0,0,44.5c11.84,0,22-10.4,22-22.25C278.42,323.22,268.3,313.11,256.46,313.11Z" transform="translate(0)" style="fill: #fff"/>
</svg>
