<svg xmlns="http://www.w3.org/2000/svg" viewBox="0 0 803.44 190.99">
  <title>plug-2</title>
  <g>
    <path d="M786.46,9.38s26,21.5,12.68,58.7c-13,36.34-60.49,53.28-112.83,29.38,0,0-110.17-54.71-272.17,43.29s-394,22-414,16" style="fill: none;stroke: #f7af9d;stroke-miterlimit: 10"/>
    <path d="M774.93,12.05c-3.09-1.2,1.56-13.15,4.65-11.94l4.3,1.67a6.41,6.41,0,0,1,3.65,8.3h0a6.41,6.41,0,0,1-8.3,3.65Z" style="fill: #f7af9d"/>
    <path d="M779.58.11c-3-1.37-7.74,10.74-4.65,11.94C777.32,13,781.76,1.09,779.58.11Z" style="fill: #3558a3"/>
    <path d="M777.26,4.82c-.39-.13-.54-.7-.35-1.27s.67-.94,1.05-.81.54.7.35,1.28S777.65,5,777.26,4.82Z" style="fill: #f7af9d"/>
    <path d="M775.69,9.06c-.38-.13-.54-.7-.34-1.27s.66-.94,1-.81.54.7.35,1.28S776.08,9.19,775.69,9.06Z" style="fill: #f7af9d"/>
  </g>
</svg>
