<svg xmlns="http://www.w3.org/2000/svg" viewBox="0 0 890.14 145.44">
  <title>plug-1</title>
  <g>
    <path d="M864.91,57.1a1,1,0,0,1-.45-.11L858,53.92a1,1,0,0,1,.91-1.89l6.44,3.07a1.05,1.05,0,0,1,.49,1.4A1,1,0,0,1,864.91,57.1Z" style="fill: #3558a3"/>
    <path d="M862.18,62.44a1,1,0,0,1-.45-.1l-6.44-3.07a1.05,1.05,0,0,1,.9-1.9l6.45,3.07a1.05,1.05,0,0,1-.46,2Z" style="fill: #3558a3"/>
    <path d="M847.78,50.41C823,42.29,794.14,65.9,779.34,73.87c-93.79,50.55-140.82-13.74-150.67-19.36,0,0-173.66-133-329,18.36S.34,90.21.34,90.21" style="fill: none;stroke: #f7af9d;stroke-miterlimit: 10"/>
    <path d="M859.46,49.49c2.93,1.55-3.07,12.88-6,11.33l-4.08-2.16A6.4,6.4,0,0,1,846.72,50h0a6.4,6.4,0,0,1,8.66-2.67Z" style="fill: #f6ae9c"/>
    <path d="M872.76,44.35a1,1,0,0,1,.19.42l1.36,7a1,1,0,1,1-2.06.4l-1.36-7a1,1,0,0,1,.83-1.23A1,1,0,0,1,872.76,44.35Z" style="fill: #e72500"/>
    <path d="M883.2,44.68a1.17,1.17,0,0,1-.09.45l-3,6.5a1,1,0,1,1-1.91-.86l2.94-6.5a1.05,1.05,0,0,1,1.39-.53A1.07,1.07,0,0,1,883.2,44.68Z" style="fill: #e72500"/>
    <path d="M890,52.69a1.12,1.12,0,0,1-.33.32l-6.13,3.66a1,1,0,0,1-1.44-.36,1.07,1.07,0,0,1,.36-1.44l6.13-3.67A1.05,1.05,0,0,1,890,52.69Z" style="fill: #e72500"/>
    <path d="M872.27,84.33a1.07,1.07,0,0,1-.12-.44l-.35-7.13a1,1,0,0,1,2.09-.11l.36,7.13a1.05,1.05,0,0,1-2,.55Z" style="fill: #e72500"/>
    <path d="M862,82.52a1,1,0,0,1,.15-.43l3.84-6a1.06,1.06,0,0,1,1.46-.32,1,1,0,0,1,.31,1.45l-3.84,6a1,1,0,0,1-1.92-.7Z" style="fill: #e72500"/>
    <path d="M856.43,73.64a.94.94,0,0,1,.38-.27l6.58-2.77a1,1,0,0,1,1.37.57,1,1,0,0,1-.56,1.37l-6.58,2.76a1,1,0,0,1-1.19-1.66Z" style="fill: #e72500"/>
  </g>
</svg>
